<svg xmlns="http://www.w3.org/2000/svg" xmlns:xlink="http://www.w3.org/1999/xlink" width="500" zoomAndPan="magnify" viewBox="0 0 375 374.999991" height="500" preserveAspectRatio="xMidYMid meet" version="1.0"><defs><clipPath id="id1"><path d="M 33 79.535156 L 168.613281 79.535156 L 168.613281 295.449219 L 33 295.449219 Z M 33 79.535156 " clip-rule="nonzero"/></clipPath><clipPath id="id2"><path d="M 0.0078125 80 L 134 80 L 134 295 L 0.0078125 295 Z M 0.0078125 80 " clip-rule="nonzero"/></clipPath><clipPath id="id3"><path d="M 0.0078125 79.535156 L 135 79.535156 L 135 295.449219 L 0.0078125 295.449219 Z M 0.0078125 79.535156 " clip-rule="nonzero"/></clipPath><clipPath id="id4"><path d="M 238 79.535156 L 373 79.535156 L 373 295.449219 L 238 295.449219 Z M 238 79.535156 " clip-rule="nonzero"/></clipPath></defs><path fill="#9e95ff" d="M 34.9375 294.554688 L 167.589844 294.554688 L 167.589844 80.539062 C 167.589844 80.539062 31.636719 291.300781 34.9375 294.554688 Z M 34.9375 294.554688 " fill-opacity="1" fill-rule="nonzero"/><g clip-path="url(#id1)"><path fill="#9e95ff" d="M 168.484375 80.539062 L 168.484375 294.554688 C 168.484375 295.054688 168.089844 295.449219 167.589844 295.449219 L 34.9375 295.449219 C 34.6875 295.449219 34.472656 295.34375 34.292969 295.199219 C 33.683594 294.589844 33.214844 294.125 38.921875 284 C 42.148438 278.238281 47.0625 269.902344 53.519531 259.273438 C 64.386719 241.382812 79.777344 216.691406 99.289062 185.847656 C 132.472656 133.355469 166.511719 80.574219 166.835938 80.039062 C 167.050781 79.714844 167.445312 79.535156 167.839844 79.679688 C 168.234375 79.824219 168.484375 80.144531 168.484375 80.539062 Z M 166.691406 293.660156 L 166.691406 83.582031 C 159.589844 94.601562 130.714844 139.507812 102.125 184.703125 C 48.820312 268.898438 37.414062 289.546875 35.941406 293.660156 Z M 166.691406 293.660156 " fill-opacity="1" fill-rule="nonzero"/></g><g clip-path="url(#id2)"><path fill="#9e95ff" d="M 133.34375 294.554688 L 0.695312 294.554688 L 0.695312 80.539062 C 0.695312 80.539062 136.644531 291.300781 133.34375 294.554688 Z M 133.34375 294.554688 " fill-opacity="1" fill-rule="nonzero"/></g><g clip-path="url(#id3)"><path fill="#9e95ff" d="M -0.203125 80.539062 L -0.203125 294.554688 C -0.203125 295.054688 0.191406 295.449219 0.695312 295.449219 L 133.34375 295.449219 C 133.597656 295.449219 133.8125 295.34375 133.992188 295.199219 C 134.601562 294.589844 135.066406 294.125 129.363281 284 C 126.136719 278.238281 121.222656 269.902344 114.765625 259.273438 C 103.894531 241.382812 88.507812 216.691406 68.992188 185.847656 C 35.8125 133.355469 1.769531 80.574219 1.449219 80.039062 C 1.234375 79.714844 0.839844 79.535156 0.445312 79.679688 C 0.0507812 79.824219 -0.203125 80.144531 -0.203125 80.539062 Z M 1.589844 293.660156 L 1.589844 83.582031 C 8.695312 94.601562 37.570312 139.507812 66.160156 184.703125 C 119.464844 268.898438 130.871094 289.546875 132.339844 293.660156 Z M 1.589844 293.660156 " fill-opacity="1" fill-rule="nonzero"/></g><path fill="#9e95ff" d="M 371.566406 80.429688 L 238.914062 80.429688 L 238.914062 294.449219 C 238.914062 294.449219 374.863281 83.6875 371.566406 80.429688 Z M 371.566406 80.429688 " fill-opacity="1" fill-rule="nonzero"/><g clip-path="url(#id4)"><path fill="#9e95ff" d="M 238.015625 294.449219 L 238.015625 80.429688 C 238.015625 79.929688 238.410156 79.535156 238.914062 79.535156 L 371.566406 79.535156 C 371.816406 79.535156 372.03125 79.644531 372.210938 79.789062 C 372.820312 80.394531 373.285156 80.859375 367.582031 90.988281 C 364.355469 96.75 359.441406 105.085938 352.984375 115.714844 C 342.113281 133.605469 326.726562 158.292969 307.210938 189.140625 C 274.03125 241.632812 239.988281 294.410156 239.667969 294.949219 C 239.453125 295.269531 239.058594 295.449219 238.664062 295.304688 C 238.269531 295.164062 238.015625 294.839844 238.015625 294.449219 Z M 239.8125 81.324219 L 239.8125 291.40625 C 246.914062 280.386719 275.789062 235.476562 304.378906 190.285156 C 357.683594 106.085938 369.089844 85.441406 370.558594 81.324219 Z M 239.8125 81.324219 " fill-opacity="1" fill-rule="nonzero"/></g></svg>